<?xml version="1.0" encoding="iso-8859-1"?>
<!-- Uploaded to: SVG Repo, www.svgrepo.com, Generator: SVG Repo Mixer Tools -->
<svg version="1.1" id="Layer_1" xmlns="http://www.w3.org/2000/svg" xmlns:xlink="http://www.w3.org/1999/xlink" 
	 viewBox="0 0 512 512" xml:space="preserve">
<path style="fill:#A72B1A;" d="M510.281,226.355C495.586,98.938,387.356,0,256,0C114.615,0,0,114.615,0,256
	c0,116.013,77.178,213.984,182.987,245.417L510.281,226.355z"/>
<path style="fill:#701C12;" d="M512,256c0-10.029-0.597-19.917-1.719-29.645l-53.934-53.934L77.913,396.344l105.072,105.074
	C206.127,508.291,230.628,512,256,512C397.385,512,512,397.384,512,256z"/>
<polygon style="fill:#F9BE02;" points="244.87,340.691 256,396.344 333.913,396.344 333.913,362.952 "/>
<polygon style="fill:#FBD867;" points="256,340.691 178.087,362.952 178.087,396.344 256,396.344 "/>
<polygon style="fill:#F9BE02;" points="356.174,340.691 356.174,396.344 434.087,396.344 434.087,362.952 "/>
<polygon style="fill:#FBD867;" points="155.826,340.691 77.913,362.952 77.913,396.344 155.826,396.344 "/>
<polygon style="fill:#FEF2CC;" points="256,84.691 183.85,223.822 256,362.952 434.087,285.039 434.087,173.735 "/>
<polygon style="fill:#FFFFFF;" points="256,84.691 77.913,173.735 77.913,362.952 256,362.952 278.261,323.996 256,285.039 "/>
<polygon style="fill:#8C2416;" points="345.043,195.996 322.783,296.17 389.565,296.17 389.565,195.996 "/>
<g>
	<rect x="300.522" y="195.996" style="fill:#A72B1A;" width="44.522" height="100.174"/>
	<polygon style="fill:#A72B1A;" points="345.043,218.257 322.783,296.17 367.304,296.17 367.304,218.257 	"/>
</g>
<rect x="322.783" y="218.257" style="fill:#C92B31;" width="22.261" height="77.913"/>
<polygon style="fill:#FBD867;" points="434.087,296.17 256,307.3 256,362.952 434.087,362.952 "/>
<polygon style="fill:#7DDCD4;" points="166.957,195.996 144.696,296.17 233.739,285.039 233.739,195.996 "/>
<polygon style="fill:#B1EAE5;" points="166.957,195.996 100.174,195.996 100.174,285.039 166.957,296.17 "/>
<rect x="100.174" y="285.039" style="fill:#FBD867;" width="133.565" height="22.261"/>
<rect x="256" y="285.039" style="fill:#F9BE02;" width="178.087" height="22.261"/>
<polygon style="fill:#F63341;" points="256,72.248 244.87,84.691 256,97.135 456.348,197.31 456.348,172.422 "/>
<polygon style="fill:#F85C67;" points="256,72.248 256,97.135 55.652,197.31 55.652,172.422 "/>
</svg>