<?xml version="1.0" encoding="iso-8859-1"?>
<!-- Uploaded to: SVG Repo, www.svgrepo.com, Generator: SVG Repo Mixer Tools -->
<svg height="800px" width="800px" version="1.1" id="Layer_1" xmlns="http://www.w3.org/2000/svg" xmlns:xlink="http://www.w3.org/1999/xlink" 
	 viewBox="0 0 504.32 504.32" xml:space="preserve">
<g transform="translate(1 1)">
	<g>
		<path style="fill:#F2EDDA;" d="M54.893,464.067c-2.56-7.68-9.387-13.653-17.067-15.36V250.733l179.2-179.2L251.16,37.4
			l34.133,34.133l179.2,179.2v197.12c-7.68,2.56-14.507,8.533-17.067,16.213c0-18.773-15.36-34.133-34.133-34.133
			c-18.773,0-34.133,15.36-34.133,34.133c-9.387,0-17.067,7.68-17.067,17.067s7.68,17.067,17.067,17.067h-51.2v-34.133h-153.6V498.2
			h-51.2c9.387,0,17.067-7.68,17.067-17.067s-7.68-17.067-17.067-17.067c0-18.773-15.36-34.133-34.133-34.133
			S54.893,445.293,54.893,464.067z"/>
		<polygon style="fill:#F2EDDA;" points="327.96,464.067 327.96,498.2 174.36,498.2 174.36,464.067 208.493,464.067 
			293.827,464.067 		"/>
	</g>
	<path style="fill:#50DD8E;" d="M443.16,498.2h29.867c14.507,0,25.6-11.093,25.6-25.6s-11.093-25.6-25.6-25.6
		c-3.413,0-5.973,0-8.533,1.707c-7.68,2.56-14.507,8.533-17.067,15.36c0-18.773-15.36-34.133-34.133-34.133
		c-18.773,0-34.133,15.36-34.133,34.133c-9.387,0-17.067,7.68-17.067,17.067s7.68,17.067,17.067,17.067h17.067H443.16L443.16,498.2z
		 M123.16,464.067c9.387,0,17.067,7.68,17.067,17.067s-7.68,17.067-17.067,17.067H29.293c-14.507,0-25.6-11.093-25.6-25.6
		s11.093-25.6,25.6-25.6c3.413,0,5.973,0,8.533,1.707c7.68,2.56,14.507,8.533,17.067,15.36c0-18.773,15.36-34.133,34.133-34.133
		S123.16,445.293,123.16,464.067z"/>
	<polygon style="fill:#FFD0A1;" points="293.827,378.733 293.827,464.067 208.493,464.067 208.493,293.4 293.827,293.4 	"/>
	<path style="fill:#80D6FA;" d="M89.027,396.653h68.267V293.4H89.027V396.653z M345.027,396.653h68.267V293.4h-68.267V396.653z
		 M251.16,139.8c14.507,0,25.6,11.093,25.6,25.6s-11.093,25.6-25.6,25.6c-14.507,0-25.6-11.093-25.6-25.6
		S236.653,139.8,251.16,139.8z"/>
	<path style="fill:#FF7474;" d="M217.027,71.533l-179.2,179.2L3.693,284.867V71.533h102.4V37.4H89.027V3.267h68.267V37.4h-17.067
		v34.133H217.027z M498.627,71.533v213.333l-34.133-34.133l-179.2-179.2H498.627z"/>
</g>
<path style="fill:#51565F;" d="M474.027,503.467c-2.56,0-4.267-1.707-4.267-4.267c0-2.56,1.707-4.267,4.267-4.267
	c11.947,0,21.333-9.387,21.333-21.333c0-11.947-9.387-21.333-21.333-21.333c-2.56,0-4.267,0-6.827,0.853h-0.853
	c-6.827,1.707-11.947,6.827-13.653,12.8c-0.853,1.707-2.56,3.413-5.12,2.56c-1.707,0-3.413-2.56-3.413-4.267
	c0-16.213-13.653-29.867-29.867-29.867S384.427,448,384.427,464.213c0,2.56-1.707,4.267-4.267,4.267c-6.827,0-12.8,5.973-12.8,12.8
	s5.973,12.8,12.8,12.8h34.133c2.56,0,4.267,1.707,4.267,4.267c0,2.56-1.707,4.267-4.267,4.267h-204.8
	c-2.56,0-4.267-1.707-4.267-4.267c0-2.56,1.707-4.267,4.267-4.267h153.6c-2.56-3.413-4.267-7.68-4.267-12.8
	c0-10.24,7.68-18.773,17.067-21.333c1.707-19.627,17.92-34.133,38.4-34.133c17.067,0,31.573,11.093,36.693,26.453
	c2.56-3.413,6.827-5.12,10.24-6.827V302.933c0-2.56,1.707-4.267,4.267-4.267s4.267,1.707,4.267,4.267v140.8c1.707,0,2.56,0,4.267,0
	c16.213,0,29.867,13.653,29.867,29.867C503.893,489.813,490.24,503.467,474.027,503.467z M175.36,503.467
	c-2.56,0-4.267-1.707-4.267-4.267v-34.133c0-2.56,1.707-4.267,4.267-4.267h29.867V294.4c0-2.56,1.707-4.267,4.267-4.267h85.333
	c2.56,0,4.267,1.707,4.267,4.267v166.4h29.867c2.56,0,4.267,1.707,4.267,4.267c0,2.56-1.707,4.267-4.267,4.267H179.627V499.2
	C179.627,501.76,177.92,503.467,175.36,503.467z M213.76,460.8h76.8V384h-12.8c-2.56,0-4.267-1.707-4.267-4.267
	c0-2.56,1.707-4.267,4.267-4.267h12.8v-76.8h-76.8V460.8z M124.16,503.467c-2.56,0-4.267-1.707-4.267-4.267
	c0-2.56,1.707-4.267,4.267-4.267c6.827,0,12.8-5.973,12.8-12.8s-5.973-12.8-12.8-12.8c-2.56,0-4.267-1.707-4.267-4.267
	c0-16.213-13.653-29.867-29.867-29.867S60.16,448.853,60.16,465.067c0,1.707-1.707,3.413-3.413,4.267
	c-1.707,0-4.267-0.853-5.12-2.56c-2.56-5.973-7.68-11.093-13.653-12.8c0,0,0,0-0.853,0c-2.56-0.853-4.267-0.853-6.827-0.853
	c-11.947,0-21.333,9.387-21.333,21.333c0,11.947,9.387,21.333,21.333,21.333c2.56,0,4.267,1.707,4.267,4.267
	c0,2.56-1.707,4.267-4.267,4.267c-16.213,0-29.867-13.653-29.867-29.867c0-16.213,13.653-29.867,29.867-29.867
	c1.707,0,2.56,0,4.267,0V302.933c0-2.56,1.707-4.267,4.267-4.267s4.267,1.707,4.267,4.267v143.36
	c4.267,1.707,7.68,4.267,10.24,6.827c5.12-15.36,19.627-26.453,36.693-26.453c19.627,0,35.84,15.36,38.4,34.133
	c10.24,1.707,17.067,10.24,17.067,21.333C145.493,494.08,136.107,503.467,124.16,503.467z M431.36,401.067h-102.4
	c-2.56,0-4.267-1.707-4.267-4.267s1.707-4.267,4.267-4.267h12.8V294.4c0-2.56,1.707-4.267,4.267-4.267h68.267
	c2.56,0,4.267,1.707,4.267,4.267v98.133h12.8c2.56,0,4.267,1.707,4.267,4.267S433.92,401.067,431.36,401.067z M350.293,392.533
	h59.733v-42.667h-59.733V392.533z M350.293,341.333h59.733v-42.667h-59.733V341.333z M175.36,401.067H72.96
	c-2.56,0-4.267-1.707-4.267-4.267s1.707-4.267,4.267-4.267h12.8V294.4c0-2.56,1.707-4.267,4.267-4.267h68.267
	c2.56,0,4.267,1.707,4.267,4.267v98.133h12.8c2.56,0,4.267,1.707,4.267,4.267S177.92,401.067,175.36,401.067z M94.293,392.533
	h59.733v-42.667H94.293V392.533z M94.293,341.333h59.733v-42.667H94.293V341.333z M4.693,290.133c-0.853,0-0.853,0-1.707,0
	c-1.707-0.853-2.56-2.56-2.56-4.267V72.533c0-0.853,0.853-2.56,0.853-3.413s1.707-0.853,3.413-0.853h98.133v-25.6h-12.8
	c-2.56,0-4.267-1.707-4.267-4.267V4.267C85.76,1.707,87.467,0,90.027,0h68.267c2.56,0,4.267,1.707,4.267,4.267V38.4
	c0,2.56-1.707,4.267-4.267,4.267h-12.8v25.6h21.333c2.56,0,4.267,1.707,4.267,4.267c0,2.56-1.707,4.267-4.267,4.267h-25.6
	c-2.56,0-4.267-1.707-4.267-4.267V38.4c0-2.56,1.707-4.267,4.267-4.267h12.8v-25.6H94.293v25.6h12.8c2.56,0,4.267,1.707,4.267,4.267
	v34.133c0,2.56-1.707,4.267-4.267,4.267H8.96v198.827L248.747,35.84c0.853-0.853,2.56-0.853,3.413-0.853c1.707,0,2.56,0,3.413,0.853
	L495.36,275.627V76.8H337.493c-2.56,0-4.267-1.707-4.267-4.267c0-2.56,1.707-4.267,4.267-4.267h162.133
	c2.56,0,4.267,1.707,4.267,4.267v213.333c0,1.707-0.853,3.413-2.56,4.267c-1.707,0.853-3.413,0-4.267-0.853L253.013,45.227
	L8.96,289.28C7.253,289.28,5.547,290.133,4.693,290.133z M252.16,196.267c-16.213,0-29.867-13.653-29.867-29.867
	s13.653-29.867,29.867-29.867s29.867,13.653,29.867,29.867S268.373,196.267,252.16,196.267z M252.16,145.067
	c-11.947,0-21.333,9.387-21.333,21.333s9.387,21.333,21.333,21.333c11.947,0,21.333-9.387,21.333-21.333
	S264.107,145.067,252.16,145.067z"/>
</svg>